<svg xmlns="http://www.w3.org/2000/svg" viewBox="0 0 1200 675"><defs><linearGradient id="bg" x1="0" y1="0" x2="1" y2="1"><stop stop-color="#cffafe"/><stop offset="1" stop-color="#67e8f9"/></linearGradient><filter id="shadow"><feDropShadow dx="0" dy="12" stdDeviation="14" flood-opacity=".16"/></filter></defs><rect width="1200" height="675" fill="url(#bg)"/><circle cx="606" cy="119" r="81" fill="#fff" opacity=".28"/><circle cx="594" cy="550.5" r="111" fill="#eab308" opacity=".13"/><g filter="url(#shadow)"><path d="M130 490h940" stroke="#0e7490" stroke-width="25" stroke-linecap="round"/><path d="M235 265h650c70 0 125 55 125 125v100H180V320c0-30 25-55 55-55z" fill="#fff"/><rect x="285" y="300" width="150" height="100" rx="16" fill="#67e8f9"/><rect x="470" y="300" width="150" height="100" rx="16" fill="#67e8f9"/><rect x="655" y="300" width="150" height="100" rx="16" fill="#67e8f9"/><circle cx="330" cy="505" r="58" fill="#0e7490"/><circle cx="845" cy="505" r="58" fill="#0e7490"/><circle cx="330" cy="505" r="22" fill="#cffafe"/><circle cx="845" cy="505" r="22" fill="#cffafe"/></g></svg>
