<svg xmlns="http://www.w3.org/2000/svg" viewBox="0 0 1200 675"><defs><linearGradient id="bg" x1="0" y1="0" x2="1" y2="1"><stop stop-color="#dbeafe"/><stop offset="1" stop-color="#93c5fd"/></linearGradient><filter id="shadow"><feDropShadow dx="0" dy="12" stdDeviation="14" flood-opacity=".16"/></filter></defs><rect width="1200" height="675" fill="url(#bg)"/><circle cx="900" cy="165" r="55" fill="#fff" opacity=".28"/><circle cx="300" cy="527.5" r="102" fill="#f59e0b" opacity=".13"/><g filter="url(#shadow)"><rect x="110" y="470" width="980" height="44" rx="22" fill="#1d4ed8" opacity=".22"/><rect x="300" y="260" width="430" height="245" rx="22" fill="#fff"/><rect x="335" y="295" width="360" height="165" rx="12" fill="#dbeafe"/><path d="M390 505h250" stroke="#1d4ed8" stroke-width="22" stroke-linecap="round"/><path d="M790 330h120v150H790z" fill="#fff"/><path d="M910 355h35a45 45 0 010 90h-35" fill="none" stroke="#fff" stroke-width="20"/><path d="M820 300c-24-34 25-55 0-88M870 300c-24-34 25-55 0-88" fill="none" stroke="#f59e0b" stroke-width="13" stroke-linecap="round"/></g></svg>
